<svg width="32" height="44" viewBox="0 0 32 44" fill="none" xmlns="http://www.w3.org/2000/svg">
<g clip-path="url(#clip0_6_2)">
<path d="M3.66 16.53C-0.569999 21.75 -1.31 29.25 2.35 35.34C6.37 42.03 14.41 44.82 21.52 42.49C16.79 43.44 11.76 41.4 9.13 37.02C6.89 33.29 6.96 28.82 8.92 25.27L14.17 33.99C15.84 36.77 19.45 37.67 22.23 36C25.01 34.33 25.91 30.72 24.24 27.94C22.57 25.16 18.96 24.26 16.18 25.93C15.26 26.48 14.55 27.24 14.07 28.12L5.74 14.29M20.58 33.26C19.32 34.02 17.67 33.61 16.91 32.35C16.15 31.09 16.56 29.44 17.82 28.68C19.08 27.92 20.73 28.33 21.49 29.59C22.25 30.85 21.84 32.5 20.58 33.26Z" fill="#007FFF"/>
<path d="M20.22 0.620003C28.94 3.43 32.84 11.1 31.86 18.24C31.59 20.22 29.55 21.43 27.68 20.74L15.02 16.09C16.33 13.25 15.79 9.77 13.43 7.46C10.6 4.69 6.16 4.58 3.2 7.1C5.41 3.89 9.01 1.28 13.67 0.280003C15.84 -0.189997 18.1 -0.0599967 20.21 0.630003L20.22 0.620003Z" fill="#007FFF"/>
</g>
<defs>
<clipPath id="clip0_6_2">
<rect width="32" height="43.3" fill="white"/>
</clipPath>
</defs>
</svg>
