<svg width="41" height="42" viewBox="0 0 41 42" fill="none" xmlns="http://www.w3.org/2000/svg">
<g id="Frame">
<g id="1">
<path id="Vector" d="M35.3248 13.8346H5.53577C5.2172 13.8346 4.91167 13.708 4.68641 13.4828C4.46115 13.2575 4.33459 12.952 4.33459 12.6334C4.33459 12.3149 4.46115 12.0093 4.68641 11.7841C4.91167 11.5588 5.2172 11.4323 5.53577 11.4323H35.3248C35.6434 11.4323 35.9489 11.5588 36.1742 11.7841C36.3994 12.0093 36.526 12.3149 36.526 12.6334C36.526 12.952 36.3994 13.2575 36.1742 13.4828C35.9489 13.708 35.6434 13.8346 35.3248 13.8346Z" fill="white"/>
<path id="Vector_2" d="M35.3248 22.8994H5.53577C5.2172 22.8994 4.91167 22.7729 4.68641 22.5476C4.46115 22.3223 4.33459 22.0168 4.33459 21.6982C4.33459 21.3797 4.46115 21.0741 4.68641 20.8489C4.91167 20.6236 5.2172 20.4971 5.53577 20.4971H35.3248C35.6434 20.4971 35.9489 20.6236 36.1742 20.8489C36.3994 21.0741 36.526 21.3797 36.526 21.6982C36.526 22.0168 36.3994 22.3223 36.1742 22.5476C35.9489 22.7729 35.6434 22.8994 35.3248 22.8994Z" fill="white"/>
<path id="Vector_3" d="M35.3248 31.9643H5.53577C5.2172 31.9643 4.91167 31.8377 4.68641 31.6125C4.46115 31.3872 4.33459 31.0817 4.33459 30.7631C4.33459 30.4446 4.46115 30.139 4.68641 29.9138C4.91167 29.6885 5.2172 29.562 5.53577 29.562H35.3248C35.6434 29.562 35.9489 29.6885 36.1742 29.9138C36.3994 30.139 36.526 30.4446 36.526 30.7631C36.526 31.0817 36.3994 31.3872 36.1742 31.6125C35.9489 31.8377 35.6434 31.9643 35.3248 31.9643Z" fill="white"/>
</g>
</g>
</svg>
